<svg id="Layer_1" data-name="Layer 1" xmlns="http://www.w3.org/2000/svg" viewBox="0 0 417 121"><defs><style>.cls-1{fill:#070707;}</style></defs><title>logo-on-white copy</title><path class="cls-1" d="M174.83,74.16a34.88,34.88,0,0,1-12.11,15.22,29,29,0,0,1-16.93,5.35,31.55,31.55,0,0,1-31.51-31.5c0-16.62,13.07-31.94,31.18-31.94s31.41,14.36,31.41,32.47a24.78,24.78,0,0,1-.43,4.72H131.85c1.07,7.07,7,11.25,13.94,11.25,5.46,0,8.35-2.46,10.82-5.57ZM159.07,56.47c-.75-3.53-4.28-10.18-13.5-10.18s-12.75,6.65-13.5,10.18Z"/><path class="cls-1" d="M247.28,16.62h17.79V95.93H247.28Z"/><path class="cls-1" d="M300.64,31.4c21.65,0,32.05,17,32.05,31.61s-10.4,31.62-32.05,31.62-32-17-32-31.62S279,31.4,300.64,31.4Zm0,46.62c7.72,0,14.26-6.33,14.26-15s-6.54-15-14.26-15-14.25,6.32-14.25,15S292.93,78,300.64,78Z"/><path class="cls-1" d="M389.05,33.33l-29.8,79.3H340.39l9.43-22.83L327.75,33.33h19l11.9,34.5h.22l11.36-34.5Z"/><rect class="cls-1" x="4" y="32.58" width="19.79" height="19.79"/><rect class="cls-1" x="4" y="75.29" width="19.79" height="19.79"/><path class="cls-1" d="M212.11,32.44c21.64,0,30.47,16.82,30.47,31.39s-8.83,31.84-30.47,31.84-32.05-17-32.05-31.62S190.46,32.44,212.11,32.44Zm0,46.62c7.71,0,14.25-6.33,14.25-15s-6.54-15-14.25-15-14.26,6.32-14.26,15S204.39,79.06,212.11,79.06Z"/><rect class="cls-1" x="180.06" y="65.13" width="17.71" height="47.66"/><path class="cls-1" d="M39.16,11.13H66.64c9.31,0,25.91,0,36.68,15.48C109,34.46,111,43.32,111,52.41c0,22.66-11.22,41.73-42.74,41.73h-29Zm21.2,64.39h9.08c15.82,0,20.31-11,20.31-22.77,0-4.72-1-10.66-4-15.37-2.47-3.7-6.73-7.63-16.15-7.63h-9.2Z"/><path id="_8" data-name="8" class="cls-1" d="M401.06,11.29A10.94,10.94,0,1,0,412,22.23,10.94,10.94,0,0,0,401.06,11.29Zm0,20.11a9.17,9.17,0,1,1,9.17-9.17A9.18,9.18,0,0,1,401.06,31.4Zm3-7.84a5.49,5.49,0,0,0-1.24-1,3.62,3.62,0,0,0,2.27-1.05,3.08,3.08,0,0,0,.75-2.13,3.2,3.2,0,0,0-.5-1.79,2.55,2.55,0,0,0-1.33-1.1,8.43,8.43,0,0,0-2.66-.31h-4.85V27.65h2.3V22.88h.47a3.64,3.64,0,0,1,1.16.13,1.7,1.7,0,0,1,.7.47,17.09,17.09,0,0,1,1.21,1.68L404,27.65h2.76l-1.4-2.23A12.73,12.73,0,0,0,404.08,23.56Zm-3.55-2.5h-1.71v-2.9h1.8c.94,0,1.5,0,1.69,0a1.52,1.52,0,0,1,.87.45,1.4,1.4,0,0,1,.3.93,1.45,1.45,0,0,1-.23.86,1.25,1.25,0,0,1-.65.49A8.94,8.94,0,0,1,400.53,21.06Z"/></svg>